<?xml version="1.0" encoding="UTF-8"?>
<svg xmlns="http://www.w3.org/2000/svg" id="Layer_1" data-name="Layer 1" viewBox="0 0 24 24">
  <path d="M0,7V3H2v2.362C4.189,2.044,7.891,0,12,0c6.617,0,12,5.383,12,12h-2c0-5.514-4.486-10-10-10-3.64,0-6.899,1.921-8.665,5h2.665v2H2c-1.103,0-2-.897-2-2ZM22,15h-4v2h2.666c-1.765,3.079-5.025,5-8.666,5-5.514,0-10-4.486-10-10H0c0,6.617,5.383,12,12,12,4.109,0,7.812-2.043,10-5.362v2.362h2v-4c0-1.103-.897-2-2-2ZM14.5,7c.828,0,1.5,.672,1.5,1.5v8.5H8V8.5c0-.828,.672-1.5,1.5-1.5h5Zm-1.5,6h-3v2h3v-2Zm1-4h-4v2h4v-2Z"/>
</svg>
